<svg xmlns="http://www.w3.org/2000/svg" viewBox="0 0 533.5 544.3">
  <path fill="#4285f4" d="M533.5 278.4c0-17.7-1.6-35.2-4.7-52.1H272v98.6h147.4c-6.3 34-25 62.8-53.3 82v67h85.9c50.2-46.3 80.5-114.4 80.5-195.5z"/>
  <path fill="#34a853" d="M272 544.3c72.6 0 133.6-24 178.2-65.2l-85.9-67c-23.9 16.1-54.6 25.6-92.3 25.6-70.9 0-131-47.8-152.4-112.1H29.5v70.4C74.2 486 167.4 544.3 272 544.3z"/>
  <path fill="#fbbc04" d="M119.6 323.6c-10.8-32.3-10.8-67 0-99.3V154h-89.4C4 211.9 0 244.9 0 278.4s4 66.5 30.2 124.4l89.4-79.2z"/>
  <path fill="#ea4335" d="M272 109.6c39.5 0 75 13.6 103 40.4l77.2-77.2C405.6 25.6 344.6 0 272 0 167.4 0 74.2 58.3 29.5 154l89.4 70.4C141 157.4 201.1 109.6 272 109.6z"/>
</svg>
